<svg width="40" height="40" viewBox="0 0 40 40" fill="none" xmlns="http://www.w3.org/2000/svg">
<path d="M5 0C2.23858 0 0 2.23858 0 5V35C0 37.7614 2.23858 40 5 40H35C37.7614 40 40 37.7614 40 35V5C40 2.23858 37.7614 0 35 0H5Z" fill="#0057A8"/>
<g clip-path="url(#clip0_122_21)">
<path d="M29.887 26.04C29.8655 25.9879 29.8415 25.9372 29.8151 25.888C29.2326 24.8822 28.5178 23.9762 27.6938 23.199L27.6721 23.1742L27.6612 23.1623L27.6504 23.1504H27.6395C27.1659 22.6554 26.8661 22.3228 26.7402 22.1525C26.6318 22.021 26.5597 21.8586 26.5321 21.6841C26.5046 21.5096 26.5228 21.3301 26.5847 21.1664C26.8668 20.5979 27.203 20.0636 27.5877 19.5724C27.8913 19.1452 28.1321 18.8003 28.3098 18.5378C29.5914 16.6719 30.1467 15.4796 29.9756 14.9607L29.9096 14.839C29.8162 14.7351 29.696 14.6651 29.5652 14.6385C29.3325 14.5751 29.0904 14.5648 28.8539 14.6082L25.6553 14.6321C25.582 14.6122 25.5052 14.6144 25.4329 14.6385L25.2883 14.6751L25.2323 14.7053L25.188 14.7419C25.141 14.7764 25.0997 14.8194 25.066 14.8692C25.0196 14.9339 24.9821 15.0058 24.9549 15.0825C24.6229 16.0268 24.2256 16.942 23.7663 17.82C23.4922 18.323 23.2414 18.7591 23.0141 19.1284C22.8423 19.4169 22.6491 19.6894 22.4365 19.9432C22.3051 20.0937 22.164 20.2339 22.0145 20.3626C21.8885 20.4681 21.7924 20.5127 21.7261 20.4962L21.5372 20.4477C21.4318 20.3732 21.3455 20.2704 21.2865 20.1492C21.2172 20.0013 21.1739 19.8404 21.1586 19.675C21.1363 19.4839 21.1232 19.3197 21.1193 19.1824C21.1154 19.0451 21.1173 18.8504 21.1251 18.5983C21.1329 18.3468 21.1366 18.1765 21.136 18.0874C21.136 17.7791 21.1416 17.4434 21.1527 17.0803C21.1639 16.7171 21.1731 16.4311 21.1803 16.2224C21.1881 16.0112 21.1917 15.7881 21.1912 15.5531C21.1945 15.369 21.1814 15.185 21.1519 15.0038C21.1261 14.8698 21.0872 14.7394 21.0357 14.6147C20.9882 14.4946 20.9091 14.3929 20.8084 14.3226C20.693 14.247 20.5675 14.1917 20.4364 14.1587C19.9428 14.0501 19.4404 13.997 18.937 14.0003C18.0433 13.9179 17.1433 14.0169 16.2824 14.2924C16.1242 14.3859 15.9826 14.51 15.8645 14.6586C15.7314 14.8368 15.7127 14.9342 15.8085 14.9507C15.9898 14.9643 16.1668 15.0177 16.329 15.1074C16.4912 15.1972 16.6354 15.3217 16.753 15.4735L16.8199 15.6199C16.893 15.7985 16.9452 15.9865 16.9753 16.1793C17.0301 16.472 17.0637 16.769 17.0756 17.0674C17.1128 17.5735 17.1128 18.0821 17.0756 18.5882C17.0383 19.01 17.0032 19.3383 16.9703 19.5733C16.9471 19.7713 16.8967 19.9642 16.8207 20.1456C16.7813 20.2377 16.7366 20.327 16.687 20.4129C16.6726 20.437 16.6538 20.4576 16.6318 20.4733C16.5361 20.5138 16.4344 20.5346 16.3317 20.5347C16.1876 20.5232 16.0501 20.4635 15.9381 20.3635C15.7682 20.2277 15.6136 20.0703 15.4775 19.8947C15.2774 19.6335 15.0971 19.3549 14.9384 19.0615C14.7384 18.7045 14.5311 18.2827 14.3166 17.7962L14.1386 17.4428C14.0271 17.2158 13.8753 16.8853 13.6831 16.4513C13.4908 16.0173 13.3231 15.5977 13.1799 15.1924C13.1299 15.0356 13.0368 14.8996 12.9133 14.8033L12.8573 14.7666C12.8024 14.7237 12.7425 14.6889 12.6792 14.6632C12.597 14.6265 12.5112 14.6 12.4235 14.5844L9.38028 14.6082C9.26572 14.5927 9.14943 14.6054 9.03994 14.6455C8.93045 14.6855 8.83055 14.752 8.74756 14.8399L8.70327 14.9131C8.67711 14.9739 8.6656 15.0411 8.66983 15.1081C8.67443 15.2211 8.69706 15.3324 8.7367 15.4368C9.18247 16.5807 9.66557 17.6839 10.186 18.7466C10.7064 19.8092 11.16 20.6638 11.5467 21.3102C11.9317 21.959 12.3243 22.5715 12.7244 23.1477C13.1244 23.7239 13.3891 24.0929 13.5184 24.2546C13.6482 24.417 13.7502 24.5391 13.8243 24.6208L14.1018 24.9129C14.3461 25.1677 14.6079 25.4015 14.885 25.6124C15.2537 25.9011 15.6356 26.1691 16.0292 26.4153C16.4894 26.696 16.9803 26.9114 17.4902 27.0562C18.0171 27.2192 18.5648 27.2872 19.1117 27.2577H20.3846C20.6031 27.2507 20.8115 27.1555 20.9697 26.9903L21.014 26.929C21.0521 26.859 21.0803 26.783 21.0976 26.7037C21.1245 26.5948 21.1377 26.4824 21.1368 26.3696C21.1267 26.0532 21.1509 25.7367 21.2087 25.4265C21.2454 25.2073 21.309 24.9945 21.3976 24.7939C21.4612 24.6623 21.5417 24.5415 21.6367 24.435C21.6924 24.3674 21.7559 24.308 21.8256 24.2583C21.8542 24.2421 21.8838 24.228 21.9142 24.2162C22.0249 24.1901 22.1398 24.1936 22.2491 24.2264C22.3583 24.2592 22.4587 24.3204 22.5419 24.4048C22.7942 24.6076 23.022 24.8448 23.2197 25.1107C23.4309 25.3908 23.6844 25.7052 23.9803 26.0537C24.2148 26.3414 24.4752 26.6025 24.7576 26.8328L24.9799 26.9784C25.1623 27.0918 25.3561 27.1815 25.5575 27.2457C25.7567 27.3234 25.9707 27.3442 26.1793 27.3062L29.0211 27.2577C29.2479 27.2711 29.474 27.2187 29.6764 27.1057C29.8049 27.0378 29.9044 26.918 29.9539 26.7715C29.9838 26.6357 29.9858 26.4944 29.9597 26.3577C29.9459 26.2492 29.9216 26.1427 29.887 26.04Z" fill="white"/>
</g>
<defs>
<clipPath id="clip0_122_21">
<rect width="21.3333" height="13.3333" fill="white" transform="translate(8.66666 14)"/>
</clipPath>
</defs>
</svg>
