<svg width="40" height="40" viewBox="0 0 40 40" fill="none" xmlns="http://www.w3.org/2000/svg">
<path d="M5 0C2.23858 0 0 2.23858 0 5V35C0 37.7614 2.23858 40 5 40H35C37.7614 40 40 37.7614 40 35V5C40 2.23858 37.7614 0 35 0H5Z" fill="url(#paint0_linear_101_88)"/>
<path d="M19.9969 5.23154C13.9453 5.23154 8.19859 4.69321 6.00359 10.3265C5.09693 12.6532 5.22859 15.6749 5.22859 20.0015C5.22859 23.7982 5.10693 27.3665 6.00359 29.6749C8.19359 35.3115 13.9869 34.7715 19.9936 34.7715C25.7886 34.7715 31.7636 35.3749 33.9853 29.6749C34.8936 27.3249 34.7603 24.3482 34.7603 20.0015C34.7603 14.2315 35.0786 10.5065 32.2803 7.70987C29.4469 4.87654 25.6153 5.23154 19.9903 5.23154H19.9969ZM18.6736 7.89321C31.2969 7.87321 32.9036 6.46987 32.0169 25.9649C31.7019 32.8599 26.4519 32.1032 19.9986 32.1032C8.23193 32.1032 7.89359 31.7665 7.89359 19.9949C7.89359 8.08654 8.82693 7.89987 18.6736 7.88987V7.89321ZM27.8803 10.3449C26.9019 10.3449 26.1086 11.1382 26.1086 12.1165C26.1086 13.0949 26.9019 13.8882 27.8803 13.8882C28.8586 13.8882 29.6519 13.0949 29.6519 12.1165C29.6519 11.1382 28.8586 10.3449 27.8803 10.3449ZM19.9969 12.4165C15.8086 12.4165 12.4136 15.8132 12.4136 20.0015C12.4136 24.1899 15.8086 27.5849 19.9969 27.5849C24.1853 27.5849 27.5786 24.1899 27.5786 20.0015C27.5786 15.8132 24.1853 12.4165 19.9969 12.4165ZM19.9969 15.0782C26.5053 15.0782 26.5136 24.9249 19.9969 24.9249C13.4903 24.9249 13.4803 15.0782 19.9969 15.0782Z" fill="white"/>
<defs>
<linearGradient id="paint0_linear_101_88" x1="2.57912" y1="37.8441" x2="40.0976" y2="5.68246" gradientUnits="userSpaceOnUse">
<stop stop-color="#FFDD55"/>
<stop offset="0.5" stop-color="#FF543E"/>
<stop offset="1" stop-color="#C837AB"/>
</linearGradient>
</defs>
</svg>
