<svg width="64" height="57" viewBox="0 0 64 57" fill="none" xmlns="http://www.w3.org/2000/svg">
<path fill-rule="evenodd" clip-rule="evenodd" d="M15.5654 8.50477C40.0771 -7.49829 60.1827 -0.0442592 62.9419 23.5486C65.4237 44.7551 57.6461 62.8759 34.4143 54.5638L53.4828 44.8533C54.3443 44.4132 55.0678 43.7439 55.5735 42.9192C56.0792 42.0944 56.3475 41.1462 56.349 40.1787C56.3505 39.2113 56.0851 38.2622 55.5819 37.4358C55.0788 36.6095 54.3574 35.9381 53.4972 35.4953L34.1399 26.8856L27.5583 13.9971L29.6848 12.9136L28.3904 10.3683L13.3235 18.0448L14.6207 20.5901L16.7933 19.4807L23.3604 32.3721L20.1505 47.4449C-4.36398 33.1204 -7.24737 23.3984 15.5654 8.50477Z" fill="white"/>
<path fill-rule="evenodd" clip-rule="evenodd" d="M15.5654 8.50477C40.0771 -7.49829 60.1827 -0.0442592 62.9419 23.5486C65.4237 44.7551 57.6461 62.8759 34.4143 54.5638L53.4828 44.8533C54.3443 44.4132 55.0678 43.7439 55.5735 42.9192C56.0792 42.0944 56.3475 41.1462 56.349 40.1787C56.3505 39.2113 56.0851 38.2622 55.5819 37.4358C55.0788 36.6095 54.3574 35.9381 53.4972 35.4953L34.1399 26.8856L27.5583 13.9971L29.6848 12.9136L28.3904 10.3683L13.3235 18.0448L14.6207 20.5901L16.7933 19.4807L23.3604 32.3721L20.1505 47.4449C-4.36398 33.1204 -7.24737 23.3984 15.5654 8.50477Z" fill="url(#paint0_linear_101_105)"/>
<defs>
<linearGradient id="paint0_linear_101_105" x1="0.424734" y1="0.421682" x2="62.7893" y2="57.2775" gradientUnits="userSpaceOnUse">
<stop stop-color="#EC5454"/>
<stop offset="1" stop-color="#4C7AE8"/>
</linearGradient>
</defs>
</svg>
