<svg width="122" height="29" viewBox="0 0 122 29" fill="none" xmlns="http://www.w3.org/2000/svg">
<path fill-rule="evenodd" clip-rule="evenodd" d="M50.6791 17.0459C52.0327 15.8149 52.7065 14.2271 52.7065 12.2765C52.7065 10.3437 52.0327 8.76184 50.6791 7.52487C49.3255 6.29386 47.5868 5.67537 45.4631 5.67537H40.7766V18.8657H45.4631C47.5989 18.8716 49.3375 18.265 50.6791 17.0459ZM45.2766 7.58434C46.9431 7.58434 48.2426 8.00658 49.163 8.84509C50.1016 9.70145 50.5648 10.8433 50.5648 12.2765C50.5648 13.7097 50.0955 14.8515 49.163 15.7079C48.2426 16.5523 46.9431 16.9686 45.2766 16.9686H42.8702V7.58434H45.2766ZM65.9479 18.0628V15.9695C64.9372 16.7724 63.6738 17.1768 62.1518 17.1768C60.7199 17.1768 59.5408 16.7188 58.6083 15.803C57.6698 14.8753 57.2066 13.6978 57.2066 12.2765C57.2066 10.8552 57.6698 9.68956 58.5903 8.77373C59.5288 7.84601 60.6899 7.38215 62.0796 7.38215C63.349 7.37025 64.6003 7.73302 65.6652 8.41691V6.32359C64.6124 5.73484 63.4152 5.4375 62.0615 5.4375C60.0401 5.4375 58.3677 6.08571 57.0562 7.3762C55.7266 8.65479 55.0648 10.2902 55.0648 12.2765C55.0648 14.2628 55.7266 15.8982 57.0562 17.1946C58.4098 18.4732 60.0762 19.1155 62.0615 19.1155C63.5415 19.1155 64.835 18.7646 65.9479 18.0628ZM70.5924 8.84509L74.2923 13.8227H75.5075L79.2074 8.84509V18.8716H81.295V5.68132H79.2074L74.942 11.6164L70.6345 5.68132H68.5108V18.8716H70.5984V8.84509H70.5924ZM85.2175 17.7596C86.2282 18.6635 87.4494 19.1155 88.8753 19.1155C90.3011 19.1155 91.4501 18.8122 92.3104 18.2115V16.4988C91.408 17.04 90.3733 17.3314 89.3144 17.3254C88.3519 17.3254 87.5577 17.1054 86.9321 16.6653C86.3064 16.2252 85.9274 15.6187 85.801 14.8396H92.9301V14.3103C92.9301 12.4489 92.2743 11.0574 90.9568 10.1296C90.289 9.63009 89.4709 9.37437 88.5083 9.37437C87.1065 9.37437 85.9514 9.83823 85.055 10.766C84.1707 11.6818 83.7255 12.8414 83.7255 14.233C83.7375 15.6841 84.2308 16.8556 85.2175 17.7596ZM86.6313 11.7234C87.1065 11.3012 87.7021 11.093 88.424 11.093C89.1821 11.093 89.7777 11.319 90.2048 11.771C90.6079 12.1813 90.8485 12.7225 90.8666 13.2994H85.8191C85.8792 12.6868 86.168 12.1219 86.6313 11.7234ZM102.417 17.6109V18.8716H104.463V5.68132H102.417V10.8849C101.635 9.87986 100.528 9.38032 99.0966 9.37437C97.7791 9.37437 96.7022 9.84418 95.8539 10.7897C95.0057 11.7175 94.5845 12.8712 94.5845 14.239C94.5845 15.6187 95.0057 16.7783 95.8539 17.706C96.7022 18.6456 97.7851 19.1214 99.0966 19.1214C100.528 19.1155 101.635 18.6159 102.417 17.6109ZM97.5083 16.4393C96.9368 15.8387 96.6541 15.1013 96.6541 14.233C96.6541 13.3767 96.9368 12.6571 97.5083 12.0683C98.0799 11.4677 98.7898 11.1644 99.6501 11.1644C100.222 11.1644 100.787 11.325 101.268 11.6283C101.75 11.9137 102.141 12.3241 102.417 12.8058V15.6722C102.153 16.1658 101.756 16.5761 101.28 16.8675C100.793 17.1708 100.228 17.3314 99.6501 17.3314C98.7898 17.3254 98.0739 17.034 97.5083 16.4393ZM109.607 9.6182H107.555V18.8716H109.607V9.6182ZM109.486 7.59624C109.733 7.35241 109.865 7.02533 109.859 6.68041C109.865 6.33548 109.733 6.00246 109.486 5.75863C109.252 5.51481 108.927 5.37803 108.584 5.38398C108.235 5.37803 107.904 5.51481 107.664 5.75863C107.417 6.00246 107.284 6.33548 107.297 6.68041C107.284 7.01938 107.423 7.35241 107.664 7.59624C107.904 7.84006 108.241 7.97089 108.584 7.96495C108.921 7.97089 109.246 7.83411 109.486 7.59624ZM120.881 17.0459C120.736 16.8854 120.664 16.6594 120.664 16.368V12.9187C120.664 11.8007 120.273 10.9325 119.497 10.308C118.721 9.68361 117.674 9.37437 116.357 9.37437C115.015 9.37437 113.884 9.63604 112.964 10.1653V11.9553C113.842 11.4082 114.865 11.1228 115.906 11.1287C117.728 11.1287 118.637 11.8007 118.637 13.1447V13.6562C117.777 13.1804 116.784 12.9425 115.659 12.9425C114.594 12.9425 113.71 13.2101 113.006 13.7513C112.284 14.2806 111.923 15.0299 111.923 16.0112C111.923 16.9924 112.254 17.7536 112.91 18.2888C113.577 18.8419 114.414 19.1155 115.412 19.1155C116.856 19.1155 117.999 18.6397 118.847 17.6822C119.088 18.5624 119.738 19.0025 120.803 19.0025C121.32 19.0025 121.717 18.9014 122 18.6992V17.153C121.831 17.2422 121.639 17.2897 121.452 17.2838C121.23 17.2957 121.019 17.2065 120.881 17.0459ZM117.458 17.0519C116.994 17.2541 116.489 17.3611 115.978 17.3611C115.358 17.3611 114.871 17.2362 114.51 16.9865C114.149 16.7367 113.968 16.368 113.968 15.8922C113.956 15.464 114.179 15.0596 114.546 14.8396C114.931 14.5898 115.466 14.465 116.146 14.465C117.019 14.465 117.873 14.6909 118.631 15.1251V16.255C118.306 16.5999 117.903 16.8735 117.458 17.0519Z" fill="#333333"/>
<path fill-rule="evenodd" clip-rule="evenodd" d="M41.0899 22.5887H40.9275V26.7099H41.0899V22.5887ZM40.8553 20.9176C40.753 21.0187 40.753 21.1139 40.8553 21.215C40.9575 21.3161 41.0598 21.3161 41.1621 21.215C41.2644 21.1139 41.2644 21.0187 41.1621 20.9176C41.0598 20.8165 40.9575 20.8165 40.8553 20.9176ZM45.0184 22.9396C45.3493 22.7433 45.7283 22.6363 46.1194 22.6303C47.1361 22.6303 47.6474 23.1656 47.6474 24.236V26.7099H47.8099V24.2063C47.8099 23.6532 47.6655 23.225 47.3827 22.9277C47.1 22.6303 46.6849 22.4817 46.1374 22.4817C45.7584 22.4817 45.3794 22.5709 45.0485 22.7433C44.7296 22.898 44.4469 23.1239 44.2243 23.4034V22.5887H44.0618V26.7099H44.2243V23.6592C44.4228 23.3618 44.6996 23.118 45.0184 22.9396ZM52.9356 26.6207V26.4542C52.707 26.5969 52.4423 26.6743 52.1655 26.6743C51.588 26.6743 51.2992 26.371 51.2992 25.7644V22.7433H53.0078V22.5947H51.2992V21.1912H51.1368V22.5947H49.9817V22.7433H51.1368V25.806C51.1368 26.145 51.227 26.4007 51.4135 26.5672C51.594 26.7397 51.8467 26.8229 52.1655 26.8229C52.4363 26.8289 52.707 26.7575 52.9356 26.6207ZM58.7231 26.4542V26.2877C58.3501 26.5434 57.8928 26.6743 57.3394 26.6743C56.7257 26.6743 56.2144 26.484 55.8053 26.1034C55.4022 25.7168 55.2037 25.2351 55.2037 24.6582V24.5988H59.066V24.5393C59.066 24.3787 59.0479 24.2182 59.0179 24.0635C58.9757 23.8792 58.9156 23.6948 58.8314 23.5224C58.7471 23.338 58.6328 23.1656 58.4884 23.0109C58.332 22.8504 58.1395 22.7255 57.9229 22.6422C57.6703 22.5411 57.3995 22.4876 57.1228 22.4936C56.5091 22.4936 56.0098 22.6958 55.6248 23.1061C55.2337 23.5224 55.0352 24.0398 55.0352 24.6582C55.0352 25.2827 55.2578 25.8001 55.697 26.2104C56.1362 26.6207 56.6836 26.8229 57.3394 26.8229C57.9169 26.8229 58.3802 26.698 58.7231 26.4542ZM55.7632 23.1953C56.1061 22.8206 56.5633 22.6363 57.1288 22.6363C57.4176 22.6303 57.7064 22.6898 57.965 22.8147C58.1937 22.9217 58.3862 23.0883 58.5306 23.2904C58.7712 23.6294 58.9036 24.0279 58.9096 24.4382H55.2157C55.2398 23.9803 55.4323 23.5343 55.7632 23.1953ZM61.7432 23.8019C61.9056 23.4808 62.1462 23.1953 62.447 22.9872C62.7418 22.7612 63.1028 22.6363 63.4758 22.6363V22.4876C63.0847 22.4936 62.7117 22.6125 62.3929 22.8325C62.1282 23.0169 61.9056 23.2548 61.7432 23.5343V22.5947H61.5807V26.7159H61.7432V23.8019ZM66.5681 22.9396C66.8989 22.7433 67.278 22.6363 67.669 22.6303C68.6857 22.6303 69.1971 23.1656 69.1971 24.236V26.7099H69.3595V24.2063C69.3595 23.6532 69.2151 23.225 68.9324 22.9277C68.6496 22.6303 68.2345 22.4817 67.6871 22.4817C67.308 22.4817 66.929 22.5709 66.5921 22.7433C66.2733 22.898 65.9905 23.1239 65.7679 23.4034V22.5887H65.6055V26.7099H65.7679V23.6592C65.9725 23.3618 66.2432 23.118 66.5681 22.9396ZM75.4839 26.4542V26.2877C75.1109 26.5434 74.6537 26.6743 74.1002 26.6743C73.4866 26.6743 72.9752 26.484 72.5661 26.1034C72.163 25.7168 71.9645 25.2351 71.9645 24.6582V24.5988H75.8268V24.5393C75.8268 24.3787 75.8088 24.2182 75.7787 24.0635C75.7366 23.8792 75.6764 23.6948 75.5922 23.5224C75.508 23.338 75.3937 23.1656 75.2493 23.0109C75.0929 22.8504 74.9004 22.7255 74.6838 22.6422C74.4311 22.5411 74.1604 22.4876 73.8836 22.4936C73.27 22.4936 72.7707 22.6958 72.3856 23.1061C71.9946 23.5224 71.7961 24.0398 71.7961 24.6582C71.7961 25.2827 72.0186 25.8001 72.4578 26.2104C72.897 26.6207 73.4445 26.8229 74.1002 26.8229C74.6838 26.8229 75.141 26.698 75.4839 26.4542ZM72.524 23.1953C72.8669 22.8206 73.3241 22.6363 73.8897 22.6363C74.1784 22.6303 74.4672 22.6898 74.7259 22.8147C74.9545 22.9217 75.147 23.0883 75.2914 23.2904C75.532 23.6294 75.6644 24.0279 75.6704 24.4382H71.9765C72.0006 23.9803 72.1991 23.5343 72.524 23.1953ZM80.6156 26.6207V26.4542C80.387 26.5969 80.1223 26.6743 79.8456 26.6743C79.268 26.6743 78.9793 26.371 78.9793 25.7644V22.7433H80.6878V22.5947H78.9793V21.1912H78.8168V22.5947H77.6617V22.7433H78.8168V25.806C78.8168 26.145 78.9071 26.4007 79.0936 26.5672C79.2801 26.7337 79.5267 26.8229 79.8456 26.8229C80.1163 26.8289 80.381 26.7575 80.6156 26.6207ZM89.9707 25.9547C89.9707 26.2044 90.0308 26.4007 90.1572 26.5375C90.2775 26.6743 90.452 26.7456 90.6385 26.7456C90.7227 26.7456 90.8129 26.7337 90.8911 26.704V26.5553C90.8129 26.5851 90.7287 26.6029 90.6445 26.5969C90.4941 26.6029 90.3497 26.5375 90.2655 26.4185C90.1692 26.2758 90.1211 26.1033 90.1271 25.9309V23.9625C90.1271 23.4748 89.9647 23.112 89.6398 22.8623C89.3149 22.6125 88.8818 22.4876 88.3283 22.4876C87.7327 22.4876 87.2334 22.6303 86.8363 22.9098V23.0823C87.2695 22.785 87.7868 22.6244 88.3162 22.6363C88.8457 22.6363 89.2548 22.7493 89.5375 22.9753C89.8203 23.2012 89.9647 23.5283 89.9647 23.9565V24.6761C89.4232 24.349 88.7975 24.1706 88.1598 24.1646C87.6304 24.1646 87.1973 24.2895 86.8664 24.5393C86.5475 24.7593 86.361 25.1162 86.3731 25.4968C86.3731 25.913 86.5355 26.2401 86.8604 26.478C87.2033 26.7099 87.6124 26.8289 88.0275 26.8229C88.7795 26.8348 89.4954 26.5137 89.9707 25.9547ZM86.9927 26.3829C86.6919 26.1807 86.5415 25.8833 86.5415 25.4968C86.5415 25.1459 86.6919 24.8604 86.9987 24.6404C87.3055 24.4204 87.7086 24.3133 88.214 24.3133C88.8036 24.3133 89.3931 24.4917 89.9767 24.8545V25.7168C89.7661 25.9904 89.4954 26.2223 89.1886 26.3947C88.8517 26.5791 88.4727 26.6802 88.0876 26.6743C87.7026 26.6802 87.3236 26.5791 86.9927 26.3829ZM96.462 28.0064C96.8531 27.6793 97.0516 27.2154 97.0516 26.6088V22.5887H96.8892V23.4153C96.45 22.7969 95.8304 22.4876 95.0362 22.4876C94.3805 22.4876 93.845 22.7017 93.4299 23.1358C92.6117 23.9922 92.6117 25.3243 93.4299 26.1807C93.845 26.6088 94.3805 26.8229 95.0362 26.8229C95.8304 26.8229 96.45 26.5137 96.8892 25.8952V26.6088C96.8892 27.1619 96.7087 27.596 96.3417 27.8993C95.9808 28.2026 95.4814 28.3572 94.8558 28.3572C94.2842 28.3691 93.7247 28.2205 93.2374 27.935V28.1075C93.7368 28.3751 94.3023 28.5119 94.8738 28.5C95.5416 28.494 96.071 28.3335 96.462 28.0064ZM93.5683 26.0915C93.1833 25.7049 92.9727 25.1875 92.9787 24.6523C92.9667 24.1171 93.1773 23.5997 93.5683 23.2191C93.9533 22.8325 94.4888 22.6184 95.0422 22.6303C95.4333 22.6303 95.8183 22.7314 96.1492 22.9336C96.4741 23.118 96.7328 23.3915 96.8952 23.7186V25.58C96.7328 25.9071 96.4741 26.1807 96.1492 26.365C95.8183 26.5672 95.4333 26.6683 95.0422 26.6683C94.4888 26.6862 93.9533 26.4721 93.5683 26.0915ZM103.272 26.4542V26.2877C102.899 26.5434 102.436 26.6743 101.889 26.6743C101.275 26.6743 100.764 26.484 100.354 26.1034C99.9514 25.7168 99.7468 25.2351 99.7468 24.6582V24.5988H103.609V24.5393C103.609 24.3787 103.591 24.2182 103.561 24.0635C103.519 23.8792 103.459 23.6948 103.375 23.5224C103.29 23.338 103.17 23.1656 103.032 23.0109C102.869 22.8504 102.677 22.7255 102.466 22.6422C102.213 22.5411 101.943 22.4876 101.666 22.4936C101.052 22.4936 100.553 22.6958 100.168 23.1061C99.7769 23.5224 99.5784 24.0398 99.5784 24.6582C99.5784 25.2827 99.801 25.8001 100.24 26.2104C100.679 26.6207 101.227 26.8229 101.883 26.8229C102.466 26.8229 102.929 26.698 103.272 26.4542ZM100.312 23.1953C100.655 22.8206 101.112 22.6363 101.678 22.6363C101.967 22.6303 102.256 22.6898 102.514 22.8147C102.743 22.9217 102.935 23.0883 103.08 23.2904C103.32 23.6294 103.453 24.0279 103.459 24.4382H99.7649C99.7889 23.9803 99.9815 23.5343 100.312 23.1953ZM107.086 22.9396C107.417 22.7433 107.796 22.6363 108.187 22.6303C109.204 22.6303 109.716 23.1656 109.716 24.236V26.7099H109.878V24.2063C109.878 23.6532 109.734 23.225 109.451 22.9277C109.168 22.6303 108.753 22.4817 108.205 22.4817C107.826 22.4817 107.447 22.5709 107.111 22.7433C106.792 22.898 106.509 23.1239 106.286 23.4034V22.5887H106.124V26.7099H106.286V23.6592C106.497 23.3618 106.768 23.118 107.086 22.9396ZM112.94 26.1807C113.343 26.6088 113.879 26.8229 114.54 26.8229C115.07 26.8229 115.527 26.6921 115.918 26.4364V26.258C115.515 26.5375 115.034 26.6802 114.54 26.6683C113.993 26.6802 113.464 26.4721 113.078 26.0915C112.693 25.7049 112.483 25.1875 112.489 24.6523C112.477 24.1171 112.687 23.5997 113.078 23.2191C113.458 22.8325 113.993 22.6184 114.54 22.6303C114.998 22.6244 115.443 22.7493 115.834 22.9872V22.8087C115.443 22.5828 114.998 22.4638 114.54 22.4757C113.885 22.4757 113.349 22.6898 112.94 23.1239C112.122 23.9922 112.122 25.3184 112.94 26.1807ZM119.137 28.1907C119.341 27.9885 119.558 27.6555 119.78 27.1976L121.994 22.5887H121.814L119.997 26.3531L118.144 22.5887H117.964L119.907 26.5434C119.63 27.1797 119.383 27.6436 119.167 27.9291C118.956 28.2026 118.704 28.3394 118.403 28.3394C118.21 28.3394 118.024 28.2918 117.861 28.1967V28.3572C118.03 28.4464 118.222 28.494 118.415 28.4881C118.685 28.5 118.95 28.387 119.137 28.1907Z" fill="#333333"/>
<path fill-rule="evenodd" clip-rule="evenodd" d="M0 0.00195312L17.7956 4.40269L35.0738 0.00195312V25.5976C35.0738 26.5312 37.3239 27.0724 37.3239 27.0724H33.2329V2.57103L17.7715 6.43654L2.1297 2.57103V27.0724H0V0.00195312Z" fill="#333333"/>
<path fill-rule="evenodd" clip-rule="evenodd" d="M30.0686 8.19727L18.8846 14.4475L30.1287 20.6204L21.5859 14.4534L30.0686 8.19727Z" fill="#333333"/>
<path fill-rule="evenodd" clip-rule="evenodd" d="M5.63721 8.23312C5.63721 8.23312 12.646 7.83467 16.8151 14.4536C13.3137 20.3589 6.34711 20.6503 6.34109 20.6503L5.66127 20.6682L5.63721 8.23312Z" fill="#333333"/>
<path fill-rule="evenodd" clip-rule="evenodd" d="M6.09998 8.80972C6.09998 8.80972 12.4951 8.45291 16.2672 14.4296C13.1027 19.764 6.79784 20.0851 6.79784 20.0851L6.11802 20.103L6.09998 8.80972Z" fill="#EAC63C"/>
<path d="M10.2455 17.9682C11.116 17.9682 11.8217 16.4319 11.8217 14.5368C11.8217 12.6417 11.116 11.1055 10.2455 11.1055C9.37501 11.1055 8.66931 12.6417 8.66931 14.5368C8.66931 16.4319 9.37501 17.9682 10.2455 17.9682Z" fill="black"/>
<path fill-rule="evenodd" clip-rule="evenodd" d="M10.137 10.665L10.5581 13.7634L11.1898 10.8851" fill="#EAC63C"/>
</svg>
