<svg width="771" height="602" viewBox="0 0 771 602" fill="none" xmlns="http://www.w3.org/2000/svg">
    <path fill-rule="evenodd" clip-rule="evenodd" d="M579.215 1.04602C627.745 -4.42189 677.35 11.7372 713.135 45.0638C750.149 79.5343 773.999 128.822 770.695 179.37C767.549 227.514 730.035 262.405 696.659 297.153C662.315 332.909 628.518 383.183 579.215 378.722C530.701 374.333 513.617 314.13 481.209 277.66C452.166 244.977 403.951 223.108 402.065 179.37C400.149 134.961 441.064 103.684 472.347 72.1938C503.719 40.6142 535.044 6.02285 579.215 1.04602Z" fill="#EC5454"/>
    <path d="M195.734 213.543C199.227 214.048 202.697 214.577 206.137 215.12L206.059 215.614C207.798 215.888 209.529 216.166 211.252 216.446C212.851 216.706 214.434 216.998 216 217.321L216.101 216.831C219.3 217.491 222.432 218.277 225.503 219.179L225.363 219.659C228.47 220.571 231.516 221.602 234.507 222.74L234.685 222.272C237.714 223.424 240.687 224.684 243.612 226.039L243.402 226.493C246.324 227.847 249.199 229.297 252.034 230.83L252.272 230.39C255.108 231.924 257.905 233.541 260.669 235.227L260.409 235.654C263.152 237.328 265.864 239.071 268.553 240.871L268.831 240.455C271.506 242.246 274.157 244.093 276.791 245.983L276.5 246.389C279.112 248.263 281.708 250.18 284.296 252.128L284.597 251.729C287.17 253.665 289.734 255.632 292.297 257.617L291.991 258.013C294.536 259.984 297.08 261.974 299.631 263.972L299.939 263.578C300.251 263.822 300.562 264.066 300.873 264.309C303.101 266.054 305.333 267.802 307.576 269.547L307.269 269.942C309.815 271.922 312.374 273.899 314.953 275.859L315.255 275.461C317.823 277.413 320.41 279.349 323.024 281.258L322.729 281.662C324.034 282.615 325.346 283.562 326.665 284.5C328.091 285.514 329.536 286.513 331 287.497L331.279 287.083C334.166 289.025 337.122 290.912 340.135 292.754L339.874 293.181C342.852 295.003 345.884 296.781 348.955 298.525L349.202 298.091C352.238 299.816 355.314 301.508 358.414 303.178L358.177 303.618C361.259 305.278 364.365 306.915 367.481 308.54L367.713 308.096C370.821 309.716 373.941 311.324 377.059 312.929L376.83 313.374L377.885 313.917C380.656 315.342 383.423 316.766 386.178 318.196L386.408 317.752C389.533 319.373 392.642 321.001 395.722 322.646L395.487 323.087C398.597 324.748 401.676 326.425 404.711 328.13L404.956 327.694C408.037 329.424 411.073 331.182 414.05 332.979L413.792 333.407C416.816 335.233 419.777 337.098 422.661 339.013L422.938 338.597C425.892 340.559 428.766 342.575 431.543 344.656L431.243 345.056C434.073 347.176 436.8 349.364 439.408 351.632L439.736 351.254C442.409 353.578 444.958 355.987 447.364 358.493L447.003 358.839C449.436 361.373 451.721 364.006 453.84 366.753L454.236 366.448C456.378 369.226 458.351 372.12 460.136 375.145L459.706 375.399C461.462 378.375 463.035 381.479 464.404 384.724L464.865 384.53C466.205 387.705 467.352 391.015 468.288 394.472L467.805 394.603C468.256 396.266 468.657 397.964 469.007 399.698C469.344 401.363 469.645 403.033 469.912 404.706L470.405 404.627C470.943 407.996 471.341 411.378 471.605 414.769L471.106 414.808C471.369 418.19 471.499 421.581 471.5 424.974L472 424.974C472.001 428.375 471.873 431.779 471.622 435.18L471.123 435.143C470.874 438.52 470.502 441.894 470.014 445.261L470.509 445.332C470.02 448.694 469.416 452.048 468.7 455.387L468.211 455.282C467.502 458.591 466.684 461.886 465.76 465.163L466.241 465.298C465.32 468.567 464.295 471.816 463.171 475.042L462.699 474.877C461.585 478.075 460.373 481.248 459.068 484.393L459.53 484.585C458.229 487.723 456.835 490.832 455.354 493.906L454.903 493.69C453.432 496.744 451.875 499.765 450.236 502.747L450.674 502.988C449.036 505.967 447.317 508.909 445.521 511.806L445.096 511.543C443.308 514.428 441.443 517.27 439.507 520.064L439.918 520.348C437.978 523.147 435.967 525.897 433.889 528.594L433.493 528.289C431.418 530.981 429.276 533.621 427.071 536.201L427.451 536.526C425.237 539.119 422.959 541.653 420.623 544.123L420.26 543.78C417.921 546.254 415.523 548.663 413.072 551.004L413.417 551.365C410.948 553.723 408.424 556.011 405.85 558.223L405.524 557.844C402.939 560.067 400.303 562.213 397.621 564.279L397.927 564.675C395.218 566.761 392.462 568.765 389.666 570.681L389.383 570.268C387.98 571.23 386.566 572.169 385.143 573.085C383.742 573.986 382.332 574.829 380.913 575.618L381.156 576.055C378.208 577.692 375.222 579.094 372.199 580.281L372.016 579.816C368.931 581.028 365.807 582.015 362.648 582.803L362.769 583.288C359.56 584.089 356.315 584.684 353.037 585.1L352.974 584.604C349.732 585.014 346.456 585.249 343.15 585.33L343.162 585.83C339.888 585.911 336.586 585.843 333.258 585.65L333.287 585.151C330.033 584.962 326.753 584.654 323.45 584.248L323.389 584.744C320.143 584.344 316.875 583.851 313.59 583.285L313.675 582.792C310.455 582.237 307.216 581.612 303.962 580.937L303.86 581.426C300.648 580.76 297.421 580.045 294.182 579.3L294.294 578.813C291.092 578.077 287.878 577.312 284.652 576.536L284.536 577.022C283.142 576.687 281.747 576.351 280.35 576.013C278.537 575.576 276.721 575.137 274.903 574.701L275.019 574.215C271.809 573.446 268.591 572.684 265.367 571.949L265.256 572.436C262.033 571.701 258.804 570.992 255.574 570.327L255.674 569.838C252.427 569.17 249.177 568.546 245.925 567.986L245.84 568.479C242.573 567.916 239.306 567.417 236.041 567L236.104 566.504C232.807 566.084 229.511 565.747 226.219 565.513L226.183 566.011C222.879 565.776 219.579 565.645 216.285 565.638L216.286 565.138C214.627 565.134 212.97 565.162 211.314 565.223C209.68 565.283 208.042 565.38 206.4 565.512L206.44 566.01C203.209 566.269 199.962 566.661 196.702 567.167L196.625 566.673C193.409 567.172 190.182 567.782 186.947 568.483L187.053 568.972C183.884 569.659 180.706 570.434 177.523 571.281L177.394 570.797C174.246 571.635 171.092 572.541 167.939 573.499L168.084 573.978C164.969 574.924 161.852 575.922 158.737 576.954L158.58 576.479C155.478 577.507 152.378 578.569 149.283 579.649L149.448 580.121C146.359 581.199 143.274 582.295 140.196 583.393L140.028 582.922C139.044 583.274 138.06 583.625 137.077 583.977C134.976 584.727 132.88 585.476 130.788 586.219L130.956 586.69C127.855 587.791 124.766 588.878 121.69 589.933L121.528 589.46C118.413 590.529 115.313 591.566 112.231 592.553L112.384 593.03C109.233 594.039 106.1 594.997 102.99 595.885L102.852 595.405C99.6749 596.312 96.5219 597.145 93.3967 597.886L93.5119 598.372C90.2746 599.139 87.0659 599.807 83.89 600.353L83.8052 599.86C80.5393 600.421 77.3102 600.854 74.1222 601.133L74.1658 601.631C70.858 601.921 67.5922 602.048 64.3736 601.984L64.3835 601.484C61.0952 601.419 57.8587 601.154 54.6792 600.662L54.6027 601.156C51.3646 600.655 48.1831 599.918 45.0638 598.918L45.2165 598.442C42.1672 597.464 39.1783 596.231 36.2547 594.715L36.0246 595.159C33.1956 593.692 30.4272 591.963 27.7241 589.945L28.0232 589.544C26.741 588.587 25.4733 587.565 24.2205 586.474C22.9737 585.388 21.7857 584.278 20.6542 583.145L20.3004 583.498C17.932 581.126 15.8089 578.652 13.9121 576.085L14.3143 575.788C12.3628 573.146 10.6528 570.403 9.16306 567.569L8.72047 567.802C7.19726 564.904 5.90283 561.911 4.81512 558.833L5.28655 558.666C4.21345 555.629 3.34245 552.507 2.65239 549.307L2.16363 549.413C1.48403 546.262 0.97924 543.038 0.628971 539.751L1.12616 539.698C0.786897 536.514 0.593144 533.268 0.526524 529.969L0.0266252 529.979C-0.0383688 526.759 0.0171991 523.49 0.17615 520.179L0.675576 520.203C0.829348 516.999 1.08022 513.754 1.41268 510.475L0.915229 510.424C1.24088 507.212 1.64452 503.967 2.11147 500.697L2.60645 500.768C3.06254 497.574 3.57924 494.354 4.14294 491.115L3.65034 491.029C4.20619 487.835 4.80752 484.622 5.44123 481.397L5.93185 481.493C6.55747 478.308 7.21478 475.111 7.8912 471.905L7.40197 471.802C8.07441 468.615 8.76558 465.421 9.46308 462.225L9.95159 462.331C10.3154 460.664 10.6805 458.999 11.0455 457.333C11.3793 455.81 11.7131 454.288 12.046 452.763L11.5575 452.657C12.2555 449.46 12.9474 446.268 13.6208 443.083L14.11 443.186C14.7891 439.975 15.4496 436.772 16.0786 433.581L15.5881 433.485C16.2238 430.261 16.8273 427.051 17.3854 423.861L17.8779 423.947C18.4469 420.695 18.969 417.463 19.4302 414.256L18.9353 414.184C19.4052 410.916 19.8118 407.675 20.1402 404.468L20.6376 404.519C20.805 402.883 20.9522 401.256 21.0772 399.638C21.2116 397.898 21.3276 396.15 21.4275 394.396L20.9283 394.367C21.1257 390.899 21.2599 387.404 21.3479 383.889L21.8477 383.901C21.9349 380.418 21.9768 376.916 21.9899 373.404L21.4899 373.402C21.5028 369.915 21.4874 366.417 21.4598 362.914L21.9598 362.91C21.9389 360.259 21.9109 357.605 21.883 354.953C21.8742 354.108 21.8653 353.264 21.8566 352.42L21.3566 352.425C21.3207 348.924 21.2887 345.425 21.2768 341.936L21.7768 341.935C21.7647 338.427 21.773 334.931 21.8179 331.454L21.3179 331.447C21.3633 327.931 21.4462 324.433 21.5834 320.962L22.0831 320.981C22.222 317.467 22.4166 313.981 22.6846 310.529L22.1861 310.491C22.4591 306.974 22.8081 303.494 23.2516 300.058L23.7475 300.122C24.1979 296.632 24.7459 293.189 25.4109 289.801L24.9203 289.705C25.5995 286.245 26.4005 282.842 27.3439 279.505L27.8251 279.641C28.7775 276.271 29.8755 272.971 31.14 269.749L30.6746 269.566C31.953 266.308 33.4013 263.129 35.0415 260.038L35.4832 260.272C37.1026 257.22 38.9097 254.256 40.9258 251.387L40.5168 251.1C42.4983 248.281 44.6809 245.554 47.0843 242.928L47.4531 243.266C48.6136 241.998 49.826 240.754 51.0926 239.534C52.3591 238.315 53.6493 237.141 54.9622 236.01L54.6359 235.631C57.3242 233.316 60.1072 231.183 62.976 229.22L63.2584 229.633C66.1545 227.651 69.1389 225.844 72.2028 224.2L71.9664 223.759C75.059 222.1 78.2317 220.605 81.4753 219.263L81.6664 219.725C84.883 218.395 88.1703 217.215 91.5194 216.175L91.371 215.697C94.7026 214.662 98.0943 213.765 101.537 212.993L101.646 213.48C105.035 212.721 108.473 212.083 111.954 211.556L111.879 211.062C115.324 210.541 118.81 210.128 122.327 209.813L122.371 210.311C125.834 210.001 129.329 209.786 132.847 209.656L132.829 209.156C136.316 209.027 139.826 208.98 143.351 209.007L143.347 209.507C146.835 209.534 150.337 209.632 153.848 209.792L153.871 209.293C157.367 209.452 160.871 209.673 164.375 209.946L164.336 210.445C167.827 210.716 171.318 211.039 174.802 211.405L174.854 210.907C178.348 211.273 181.835 211.682 185.307 212.123L185.244 212.619C188.734 213.062 192.209 213.538 195.662 214.038L195.734 213.543Z" stroke="#D9DDE8" stroke-dasharray="10 10"/>
    <path fill-rule="evenodd" clip-rule="evenodd" d="M216.768 140.425C219.694 166.489 194.428 187.996 171.86 201.309C153.701 212.021 132.049 204.673 111.058 202.785C93.0885 201.169 75.0117 201.7 60.2777 191.274C42.4401 178.651 26.0598 162.072 22.9343 140.425C19.4198 116.084 25.7508 89.7846 43.1123 72.3883C60.4779 54.9879 86.8263 48.0756 111.058 52.1248C132.477 55.704 142.894 77.9197 159.569 91.8487C179.526 108.519 213.864 114.564 216.768 140.425Z" fill="#4C7AE8"/>
</svg>
